<svg xmlns="http://www.w3.org/2000/svg" viewBox="0 0 437.5 393.21963">
	<defs>
		<style>
			.a{
				fill:#2d9bd3;
			}
			.b{
				fill:#c565d8;
			}
			.c{
				fill:#452878;
			}
			.d{
				fill:#fff;
			}
		</style>
	</defs>
	<path class="a" d="M580.22174,321H450.65662L326.42743,247.35022a29.138,29.138,0,0,0-43.916,25.119s.00916,36.02289.01136,72.04693c.00293,48.48438-.00415,59.85965-.03009,72.05359-.04548,21.39023-.16236,52.44632-.49268,90.652A107.77836,107.77836,0,0,0,389.77832,615H580.22168A107.77836,107.77836,0,0,0,688,507.22168V428.77826A107.77826,107.77826,0,0,0,580.22174,321Z" transform="translate(-282 -221.78037)"/>
	<path class="b" d="M421.27826,299.5H550.84338l124.22919-73.64978a29.138,29.138,0,0,1,43.916,25.119s-.00916,36.02289-.01136,72.04693c-.00293,48.48438.00415,59.85965.03009,72.05359.04548,21.39023.16236,52.44632.49268,90.652A107.77836,107.77836,0,0,1,611.72168,593.5H421.27832A107.77836,107.77836,0,0,1,313.5,485.72168V407.27826A107.77826,107.77826,0,0,1,421.27826,299.5Z" transform="translate(-282 -221.78037)"/>
	<path class="c" d="M688,428.77826A107.77822,107.77822,0,0,0,580.22174,321H450.65662l-35.92206-21.29657A107.77841,107.77841,0,0,0,313.5,407.27826v78.44342A107.77836,107.77836,0,0,0,421.27832,593.5H611.72168a107.39057,107.39057,0,0,0,43.98535-9.35919A107.44476,107.44476,0,0,0,688,507.22168Z" transform="translate(-282 -221.78037)"/>
	<circle class="d" cx="219" cy="251.21963" r="22.5"/>
	<circle class="d" cx="115" cy="237.21963" r="30"/>
	<circle class="d" cx="323" cy="237.21963" r="30"/>
</svg>