<svg xmlns="http://www.w3.org/2000/svg" viewBox="0 0 500 500">
    <defs>
        <style>
            .e{
                fill:#4cbfd6;
            }
            .f{
                fill:#fff;
            }
        </style>
    </defs>
    <rect class="e" width="500" height="500"/>
    <path class="f" d="M425.57956,231.60305c-.02084-9.82355-.02655-18.98752-.02419-58.04686.00177-29.02121.00905-58.04149.00905-58.04149a23.47374,23.47374,0,0,0-35.379-20.236L290.10547,154.61145H185.72708c-1.77072,0-3.52728.0594-5.27165.16389l-71.14081-42.1761a23.47374,23.47374,0,0,0-35.379,20.236s.00728,29.02028.00905,58.0415c.00236,39.05934-.00335,48.22331-.02419,58.04685-.03659,17.23209-.1308,42.25108-.39691,73.02984a86.82691,86.82691,0,0,0,86.82694,86.82694H313.77292A86.54,86.54,0,0,0,374.58442,383.92a86.842,86.842,0,0,0,51.392-79.28711C425.71036,273.85413,425.61615,248.83513,425.57956,231.60305ZM166.1683,307.27393a24.16821,24.16821,0,1,1,24.16821-24.16821A24.16818,24.16818,0,0,1,166.1683,307.27393Zm83.7831,5.23644a18.12615,18.12615,0,1,1,18.12615-18.12615A18.12623,18.12623,0,0,1,249.9514,312.51037Zm83.7831-5.23644a24.16821,24.16821,0,1,1,24.1682-24.16821A24.16817,24.16817,0,0,1,333.7345,307.27393Z"/>
</svg>